PathFileType	4	(X/Y/Z)	S1_rest_slow_right.trc
DataRate	CameraRate	NumFrames	NumMarkers	Units	OrigDataRate	OrigDataStartFrame	OrigNumFrames
250.00	250.00	14	18	mm	250.00	6269	25073
Frame#	Time	c7	r_should	l_should	clavicle	r_upa	r_elb_l	r_elb_m	r_low	r_wri_l	r_wri_m	r_met	l_upa	l_elb_l	l_elb_m	l_low	l_wri_l	l_wri_m	l_met
	X1	Y1	Z1	X2	Y2	Z2	X3	Y3	Z3	X4	Y4	Z4	X5	Y5	Z5	X6	Y6	Z6	X7	Y7	Z7	X8	Y8	Z8	X9	Y9	Z9	X10	Y10	Z10	X11	Y11	Z11	X12	Y12	Z12	X13	Y13	Z13	X14	Y14	Z14	X15	Y15	Z15	X16	Y16	Z16	X17	Y17	Z17	X18	Y18	Z18
6269	25.07200	379.02255	1412.87231	40.67395	457.00830	1348.34326	196.51367	403.84750	1374.50366	-162.34152	523.84167	1307.58997	-3.08827	479.53156	1137.87195	234.57208	515.52679	1057.48022	239.02669	472.01620	1023.71381	154.49403	587.43634	951.08112	203.33299	696.15283	955.94464	216.14053	682.62830	935.42352	143.70976	737.07800	890.52808	231.04803	387.66779	1167.64893	-237.92824	392.82755	1089.60364	-262.86429	341.07239	1048.79639	-186.23859	388.45166	943.58978	-278.00848	491.59845	883.86151	-265.52313	427.34372	853.42902	-279.12308	524.81970	813.03442	-299.15112
6270	25.07600	379.20914	1412.88208	40.80343	457.29883	1348.30042	196.57072	403.87665	1374.53235	-162.23979	523.98694	1307.58728	-3.07473	479.74210	1137.80164	234.60817	515.73602	1057.25403	239.07538	471.93784	1023.64526	154.61037	587.19415	950.37982	203.38290	695.90643	954.56604	216.25096	682.25586	934.01416	144.04787	736.38947	888.93799	231.14108	387.63605	1167.69287	-237.84975	392.75098	1089.65710	-262.80679	341.05814	1048.83765	-186.14679	388.34518	943.64990	-277.98169	491.49527	883.90186	-265.58456	427.22095	853.48389	-279.14676	524.62347	813.16565	-299.40228
6271	25.08000	379.39355	1412.88831	40.93213	457.59293	1348.25159	196.63681	403.91159	1374.56519	-162.13011	524.13055	1307.58887	-3.05995	479.95911	1137.72009	234.63261	515.95752	1057.03357	239.11629	471.77032	1023.58331	154.76463	586.94379	949.69568	203.45111	695.66211	953.20227	216.36060	681.89960	932.74310	144.17053	735.70050	887.37567	231.24268	387.60257	1167.73132	-237.76755	392.67661	1089.69153	-262.73737	341.04776	1048.88110	-186.05351	388.23810	943.71143	-277.94855	491.39374	883.94067	-265.64038	427.10828	853.53741	-279.16183	524.34247	813.40369	-299.84088
6272	25.08400	379.57889	1412.88159	41.04953	457.89273	1348.19812	196.70319	403.94409	1374.59448	-162.02643	524.27631	1307.58423	-3.04538	480.18158	1137.63831	234.65608	516.19659	1056.82068	239.17747	471.71576	1023.50427	154.86240	586.65967	949.02997	203.53993	695.39734	951.82440	216.48520	681.54364	931.48340	144.26097	734.99341	885.81067	231.36920	387.56094	1167.76196	-237.68283	392.60635	1089.71924	-262.66449	341.03287	1048.90784	-185.94980	388.13562	943.76013	-277.90717	491.30115	883.97290	-265.68781	427.00021	853.58728	-279.17062	524.18591	813.48279	-300.00449
6273	25.08800	379.77182	1412.87720	41.16587	458.20749	1348.13977	196.76657	403.98471	1374.61621	-161.92534	524.41913	1307.57690	-3.04055	480.42349	1137.57288	234.69591	516.43903	1056.59937	239.23705	471.78525	1023.37122	154.91986	586.37970	948.36188	203.63766	695.10144	950.42981	216.79785	681.19116	930.19653	144.39526	734.26855	884.27069	231.52324	387.52240	1167.78687	-237.59651	392.53714	1089.75000	-262.60938	341.01648	1048.93884	-185.85237	388.03555	943.80292	-277.86539	491.21057	883.99561	-265.72818	426.89371	853.62469	-279.17142	524.13458	813.43610	-299.95023
6274	25.09200	379.96445	1412.87622	41.29023	458.53214	1348.08191	196.82744	404.02634	1374.63843	-161.82863	524.56415	1307.57385	-3.03621	480.67395	1137.50793	234.73396	516.68207	1056.36646	239.27103	471.81613	1023.26154	155.00504	586.11951	947.67865	203.72600	694.79840	948.99231	217.32948	680.83392	928.90192	144.53090	733.57532	882.70331	231.64519	387.48093	1167.82166	-237.51683	392.46655	1089.77759	-262.54379	341.00323	1048.96692	-185.75731	387.94403	943.84222	-277.82730	491.12271	884.01904	-265.76691	426.78885	853.66608	-279.17331	524.10101	813.36285	-299.83893
6275	25.09600	380.15579	1412.87866	41.40508	458.84964	1348.02295	196.87740	404.06793	1374.65759	-161.74258	524.71545	1307.57471	-3.03493	480.93301	1137.44006	234.76237	516.91174	1056.13831	239.30525	471.82013	1023.19373	155.05487	585.87518	947.00629	203.81581	694.51074	947.65686	217.52690	680.58832	928.04578	144.63420	732.82990	881.15729	231.79649	387.43509	1167.85522	-237.43880	392.39691	1089.80554	-262.47595	341.00076	1048.98804	-185.65094	387.86038	943.87311	-277.77835	491.03647	884.04681	-265.80334	426.68665	853.70447	-279.15933	523.93433	813.46124	-300.02081
6276	25.10000	380.34763	1412.88477	41.51405	459.16272	1347.96497	196.92325	404.11072	1374.67712	-161.65448	524.87439	1307.57166	-3.03040	481.20041	1137.37268	234.79240	517.14490	1055.90625	239.34134	nan	nan	nan	585.62427	946.32910	203.90746	694.20905	946.31567	217.64546	nan	nan	nan	732.07617	879.62274	231.94373	387.38605	1167.88135	-237.35768	392.32718	1089.82825	-262.40518	340.99417	1049.01794	-185.54390	387.77472	943.90070	-277.72562	490.95715	884.07391	-265.83160	426.58817	853.73828	-279.13336	523.96344	813.31750	-299.79578
6277	25.10400	380.53784	1412.89087	41.62052	459.49417	1347.90637	196.97417	404.15488	1374.69458	-161.56126	525.13141	1307.39380	-2.77507	481.46143	1137.29749	234.81367	517.37793	1055.67688	239.39175	472.35779	1022.70807	155.10905	585.34479	945.64392	204.01418	693.89923	944.98651	217.74890	679.52435	924.75549	144.89392	731.38788	878.07843	232.02840	387.34448	1167.91150	-237.27419	392.25861	1089.85669	-262.32245	340.98242	1049.04346	-185.42923	387.68881	943.93884	-277.66843	490.88840	884.10303	-265.84549	426.50122	853.77374	-279.10275	523.88806	813.30249	-299.76746
6278	25.10800	380.73615	1412.89636	41.74215	459.83932	1347.84888	197.03082	404.19879	1374.72266	-161.47198	525.51550	1307.00134	-2.20150	481.72061	1137.22388	234.84352	517.60486	1055.45044	239.45226	472.49460	1022.58441	155.14519	585.05963	944.99207	204.12733	693.56989	943.66223	217.84680	679.21332	923.83368	144.98531	730.63763	876.59033	232.16470	387.30139	1167.94910	-237.18858	392.19342	1089.88831	-262.23550	340.97601	1049.07397	-185.31842	387.60526	943.97076	-277.60553	490.81607	884.12933	-265.85275	426.41953	853.79944	-279.07407	523.78320	813.33069	-299.80142
6279	25.11200	380.93417	1412.89404	41.86103	460.18417	1347.78430	197.08307	404.24692	1374.74829	-161.38170	525.62732	1307.06238	-2.32155	481.97537	1137.14941	234.88246	517.82477	1055.22827	239.54213	472.70758	1022.40942	155.16624	584.77747	944.36639	204.23958	693.25488	942.36780	217.95354	678.82721	922.67822	145.09500	729.88885	875.05817	232.29376	387.25931	1167.97937	-237.10045	392.13895	1089.91797	-262.15512	340.97391	1049.11084	-185.19368	387.52591	943.99872	-277.53787	490.73923	884.15350	-265.85959	426.33795	853.81647	-279.03586	523.67889	813.35284	-299.83737
6280	25.11600	381.14230	1412.89026	41.98930	460.51682	1347.72009	197.14192	404.30801	1374.77454	-161.28798	525.67133	1307.23022	-2.60891	482.24780	1137.08167	234.93863	518.03687	1054.99988	239.64178	473.05640	1022.19128	155.12831	584.47638	943.72870	204.37112	692.90033	941.05457	218.09097	678.41876	921.46210	145.24910	729.17273	873.54590	232.41676	387.22272	1168.01233	-237.01556	392.08472	1089.94580	-262.07663	340.97079	1049.14160	-185.06360	387.44641	944.02539	-277.46213	490.66724	884.17700	-265.85495	426.26157	853.84308	-278.98544	523.57825	813.37994	-299.86935
6281	25.12000	381.35315	1412.88989	42.12813	460.84317	1347.65491	197.19940	404.35913	1374.79919	-161.20073	525.90192	1307.08142	-2.41462	482.52533	1137.02917	235.01578	518.23663	1054.76917	239.74347	473.44064	1021.99768	155.06688	584.18835	943.05096	204.49284	692.57117	939.76788	218.24265	677.99701	920.21991	145.40578	728.44519	872.02576	232.54141	387.18256	1168.04175	-236.92792	392.02945	1089.96985	-261.99777	340.96332	1049.17896	-184.92632	387.37360	944.04462	-277.37463	490.60703	884.20044	-265.83530	426.18655	853.87885	-278.93396	523.40344	813.48309	-300.04605
6282	25.12400	381.55969	1412.89514	42.26933	461.16666	1347.60095	197.26003	404.40442	1374.82666	-161.10931	525.87378	1307.38208	-2.87366	482.79465	1136.97693	235.10266	518.44238	1054.53906	239.86864	473.93344	1021.79346	154.99483	583.90723	942.37683	204.57893	692.27087	938.49695	218.37523	677.56464	918.98499	145.55617	727.68146	870.52545	232.69221	387.14093	1168.07166	-236.83376	391.97729	1089.99561	-261.91943	340.96750	1049.21204	-184.77934	387.30045	944.06323	-277.27579	490.54169	884.21844	-265.81702	426.10828	853.90240	-278.87265	523.13171	813.71008	-300.41684
